<svg version="1.1" id="Layer_1" xmlns="http://www.w3.org/2000/svg" xmlns:xlink="http://www.w3.org/1999/xlink" x="0px" y="0px"
	 width="100%" viewBox="0 0 500 500" enable-background="new 0 0 500 500" xml:space="preserve">
<path fill="#000000" opacity="1.000000" stroke="none" 
	d="
M457.000000,501.000000 
	C304.666718,501.000000 152.833405,501.000000 1.000082,501.000000 
	C1.000054,334.333405 1.000054,167.666824 1.000027,1.000171 
	C167.666550,1.000114 334.333099,1.000114 500.999756,1.000057 
	C500.999817,167.666519 500.999817,334.333038 500.999908,500.999756 
	C486.500000,501.000000 472.000000,501.000000 457.000000,501.000000 
M308.798370,255.060684 
	C308.798370,255.060684 308.813904,255.194748 308.786682,255.922043 
	C310.208771,257.284637 311.630859,258.647217 313.056091,260.669220 
	C313.679077,261.470154 314.302032,262.271118 315.179199,263.705231 
	C317.189850,264.916992 319.200500,266.128784 321.211151,267.340546 
	C322.472931,264.921875 324.129639,262.620056 324.889465,260.052826 
	C325.708893,257.284119 325.530426,254.237381 326.067017,251.364182 
	C327.319122,244.659668 331.821442,240.136978 336.980011,241.002472 
	C336.603455,247.766251 337.890015,253.843674 344.153595,258.622070 
	C347.476593,263.467072 352.330353,265.153778 357.716431,263.878571 
	C361.296906,263.030853 364.533051,260.728973 368.192169,259.741425 
	C373.699829,265.713074 382.130493,264.889709 386.305908,262.091278 
	C391.365204,258.700439 391.924988,255.304428 389.151825,248.663681 
	C394.305511,242.795959 394.275482,239.536331 388.781525,234.140549 
	C387.513367,233.339310 386.245178,232.538086 384.986908,231.038177 
	C380.156281,224.210388 371.267944,224.216385 363.375763,231.281113 
	C361.946442,230.367325 360.264526,229.584991 358.950867,228.395828 
	C355.387512,225.170242 350.921326,224.778610 347.412354,226.916977 
	C342.349915,230.001968 339.233429,228.458710 335.699371,224.045837 
	C331.246490,220.174011 326.900940,219.751678 323.351013,223.235641 
	C322.567932,223.816437 321.784882,224.397217 320.470306,224.599655 
	C318.641785,223.024414 316.813263,221.449188 314.221771,219.892166 
	C310.867584,220.656631 308.153473,220.335953 305.084381,217.921143 
	C303.220978,216.454956 298.244110,216.232254 296.625122,217.664948 
	C291.221832,222.446426 286.582367,228.048416 285.849457,235.934662 
	C285.443054,240.307526 284.103027,244.593643 282.893158,248.294815 
	C280.929504,246.166077 278.965820,244.037323 276.948730,242.042953 
	C276.948730,242.042953 277.082794,242.097137 276.887543,241.711258 
	C276.753510,241.433823 276.538086,241.253799 275.645447,240.790558 
	C272.487793,236.501724 268.208374,237.651535 263.999908,238.662567 
	C261.608582,233.550690 257.929474,230.728668 252.311401,230.626663 
	C250.981979,230.602509 248.928162,230.180008 248.465546,229.288177 
	C245.585587,223.736343 242.240952,224.267441 238.603577,228.351440 
	C237.491287,227.554565 236.706360,226.948074 235.878952,226.406509 
	C229.842606,222.455307 223.958847,223.163330 218.393539,227.875076 
	C217.221542,228.867310 214.404434,228.996063 212.893387,228.312057 
	C207.714523,225.967804 202.254410,225.563492 197.709045,228.325653 
	C188.718842,233.788864 188.566208,253.163391 197.037537,260.569153 
	C197.961136,261.383057 198.884735,262.196930 200.111389,263.689789 
	C202.699631,267.672668 206.787216,267.855530 210.501282,266.717560 
	C214.467453,265.502380 218.266159,263.257446 218.563980,258.279572 
	C219.323883,258.883423 220.083786,259.487274 221.099197,260.496735 
	C221.287659,260.788177 221.555008,260.946045 222.116272,261.663910 
	C227.238312,268.066101 232.424301,269.676361 239.778976,265.074738 
	C240.834122,264.414581 241.921539,263.805969 243.039001,263.616669 
	C243.199097,263.911591 243.446472,264.046997 244.137848,264.653900 
	C244.604218,265.124878 245.012497,265.679718 245.548096,266.050781 
	C247.011505,267.064636 248.528580,268.001099 250.024414,268.968201 
	C250.824783,267.683105 251.922028,266.488617 252.349045,265.089539 
	C252.862503,263.407257 252.473251,261.429779 253.068390,259.796387 
	C254.141251,256.851929 252.440598,252.553406 257.264954,251.751419 
	C257.820435,251.843231 258.375916,251.935028 259.055756,252.623032 
	C259.945801,253.424240 260.835876,254.225433 261.988068,255.730209 
	C265.152313,260.294373 266.922913,260.691467 272.399170,258.471222 
	C274.182983,260.658966 275.966797,262.846710 277.909271,265.754944 
	C280.241638,267.245087 282.574036,268.735260 284.980316,270.877441 
	C286.325134,272.259827 287.669952,273.642242 289.104218,275.562775 
	C289.396423,275.772308 289.688599,275.981842 290.044647,276.611633 
	C290.196289,276.890167 290.430542,277.024017 291.045807,277.655487 
	C291.520599,278.115662 291.927521,278.693481 292.482880,279.014038 
	C294.183350,279.995453 295.940826,280.878052 297.676147,281.799103 
	C298.448456,279.744415 299.375916,277.730774 299.934082,275.619476 
	C300.262146,274.378662 299.703308,272.889191 300.080658,271.679016 
	C300.608765,269.985199 301.225464,267.879150 302.521851,266.938782 
	C309.049866,262.203705 309.131744,262.316589 304.790192,255.218933 
	C301.709839,250.183075 302.772919,241.504593 306.953888,238.004379 
	C307.283386,242.992889 307.612885,247.981400 307.923218,253.599899 
	C308.259552,254.081146 308.595886,254.562393 308.798370,255.060684 
M153.842133,212.216492 
	C153.263367,211.752548 152.684601,211.288589 151.698364,210.256042 
	C150.676880,209.469833 149.766083,208.416931 148.616333,207.939774 
	C139.817596,204.288254 130.709946,205.781219 121.703835,206.705170 
	C117.805023,207.105164 117.037239,210.329163 117.029106,213.739471 
	C117.002541,224.882034 116.496780,236.050537 117.136421,247.153702 
	C117.377579,251.339890 116.629059,257.203705 123.045418,259.685211 
	C125.739708,262.121704 128.045959,265.728210 131.201263,266.774719 
	C140.565643,269.880615 152.797623,264.620514 158.586182,256.403015 
	C158.735123,256.663330 158.904495,256.909576 159.295151,257.772095 
	C160.677872,259.175079 162.007462,260.635651 163.453476,261.970032 
	C167.412872,265.623688 175.757889,265.021088 180.566101,260.953674 
	C184.007919,258.042175 184.097488,253.567932 181.088806,248.731232 
	C187.364716,244.560135 187.634903,240.851425 182.088745,235.104156 
	C180.739883,233.742706 179.391006,232.381256 177.463669,230.643219 
	C173.710190,225.761475 168.495911,225.425552 163.021027,225.230423 
	C161.357605,222.438568 159.694199,219.646698 157.779053,216.221359 
	C156.516800,215.067749 155.254547,213.914139 153.842133,212.216492 
z"/>
<path fill="#312D30" opacity="1.000000" stroke="none" 
	d="
M289.014771,275.024628 
	C287.669952,273.642242 286.325134,272.259827 285.073730,270.275513 
	C285.093475,268.033264 285.341888,266.290802 284.862274,264.779327 
	C284.299469,263.005859 283.103790,261.433167 282.121674,259.663635 
	C280.112152,262.132751 278.931366,263.583588 277.750580,265.034454 
	C275.966797,262.846710 274.182983,260.658966 272.250549,257.839569 
	C271.682831,255.468414 271.263672,253.728897 270.853088,251.623627 
	C270.450775,249.871613 270.039917,248.485336 269.715942,247.392227 
	C266.000549,248.988892 262.465973,250.507858 258.931396,252.026825 
	C258.375916,251.935028 257.820435,251.843231 257.199402,251.119339 
	C256.139771,248.514420 255.145645,246.541565 254.100571,244.230682 
	C252.427475,243.643494 249.918381,242.631577 249.351929,243.290268 
	C247.747284,245.156219 246.656418,247.614578 245.880249,250.007355 
	C244.696060,253.657990 243.945908,257.449432 242.675018,261.117554 
	C241.190796,260.050781 240.043015,259.047516 238.870255,257.696625 
	C238.410446,255.697525 237.975616,254.046051 237.264694,251.345886 
	C233.515625,258.873962 227.501877,260.177765 220.843674,260.091125 
	C220.083786,259.487274 219.323883,258.883423 218.054108,257.941467 
	C216.722473,256.383606 215.900711,255.163834 215.040649,253.613312 
	C214.399002,252.120346 213.795639,250.958145 213.154480,249.350220 
	C212.928314,245.440552 212.739960,241.976578 212.547318,238.433685 
	C211.341904,238.180817 210.225708,237.946671 209.000931,237.412445 
	C207.883163,236.644852 206.066544,235.655075 205.982071,235.785675 
	C203.441925,239.712830 200.975510,243.698837 198.779510,247.825653 
	C198.441727,248.460388 199.471985,249.823135 199.869568,250.849182 
	C200.938736,250.371689 202.007889,249.894211 203.377991,249.224335 
	C205.298584,247.509949 206.918243,245.987915 208.537903,244.465881 
	C209.070312,244.550995 209.602722,244.636093 210.135132,244.721207 
	C210.460510,246.807648 210.785904,248.894089 210.943390,251.292999 
	C208.422821,258.116302 203.482300,260.340912 196.960495,259.946533 
	C188.566208,253.163391 188.718842,233.788864 197.709045,228.325653 
	C202.254410,225.563492 207.714523,225.967804 212.893387,228.312057 
	C214.404434,228.996063 217.221542,228.867310 218.393539,227.875076 
	C223.958847,223.163330 229.842606,222.455307 235.878952,226.406509 
	C236.706360,226.948074 237.491287,227.554565 238.603577,228.351440 
	C242.240952,224.267441 245.585587,223.736343 248.465546,229.288177 
	C248.928162,230.180008 250.981979,230.602509 252.311401,230.626663 
	C257.929474,230.728668 261.608582,233.550690 263.999908,238.662567 
	C268.208374,237.651535 272.487793,236.501724 276.044861,241.167786 
	C276.720154,241.656113 276.932983,241.840149 277.082794,242.097137 
	C277.082794,242.097137 276.948730,242.042953 276.888367,242.364624 
	C278.051636,246.330109 279.275269,249.973953 280.498932,253.617783 
	C280.924713,253.722733 281.350494,253.827667 281.776276,253.932617 
	C282.245453,252.261368 282.714630,250.590103 283.183777,248.918854 
	C284.103027,244.593643 285.443054,240.307526 285.849457,235.934662 
	C286.582367,228.048416 291.221832,222.446426 296.625122,217.664948 
	C298.244110,216.232254 303.220978,216.454956 305.084381,217.921143 
	C308.153473,220.335953 310.867584,220.656631 314.607483,220.302856 
	C314.634857,224.837570 316.258942,227.833435 320.531616,230.206711 
	C320.721008,228.100647 320.861420,226.539322 321.001831,224.977997 
	C321.784882,224.397217 322.567932,223.816437 323.933105,223.214478 
	C326.013062,223.666183 327.510925,224.139069 329.270416,224.694534 
	C329.167664,226.222565 329.073944,227.616516 328.616943,229.046997 
	C326.886841,230.517563 325.519989,231.951630 324.065125,233.634964 
	C323.606598,234.254944 323.236084,234.625641 322.517212,235.033707 
	C318.941467,236.436325 315.626068,237.763412 319.133118,242.387665 
	C318.994019,243.145279 318.860535,243.568802 318.469177,244.027649 
	C317.806335,244.297745 317.401337,244.532501 316.996338,244.767273 
	C317.386597,245.192871 317.776886,245.618469 318.197479,246.375427 
	C318.130157,247.137482 318.032471,247.568192 317.636169,248.170624 
	C317.283997,250.252625 317.230530,252.162933 317.198486,254.404327 
	C317.088776,255.155365 316.957611,255.575287 316.477386,255.980530 
	C313.690186,255.708817 311.252045,255.451782 308.813904,255.194748 
	C308.813904,255.194748 308.798370,255.060684 308.800934,254.767654 
	C308.516479,253.973053 308.229431,253.471481 307.942383,252.969910 
	C307.612885,247.981400 307.283386,242.992889 307.036438,237.189178 
	C305.731842,235.260406 304.344757,234.146820 302.887604,232.662201 
	C302.413422,230.606506 302.009308,228.921829 301.589355,227.171204 
	C296.871674,230.669525 292.204041,244.749985 294.228882,249.615570 
	C294.535248,250.351791 296.018433,250.598282 297.185455,251.309036 
	C298.354004,252.676773 299.294403,253.806747 300.062073,255.254456 
	C299.230469,256.306122 298.676361,257.527496 297.895721,257.695312 
	C292.628540,258.827606 292.855316,262.694427 292.636993,266.820740 
	C292.497162,269.463501 291.071136,272.038208 289.893250,274.654175 
	C289.381470,274.784851 289.198120,274.904724 289.014771,275.024628 
M231.817978,239.832336 
	C231.758621,239.680588 231.728149,239.505768 231.630997,239.384232 
	C231.549255,239.281937 231.329514,239.150055 231.273697,239.186935 
	C228.420898,241.071960 227.614578,243.594360 228.559143,246.649185 
	C229.086624,246.826019 229.614105,247.002853 230.141571,247.179688 
	C230.713440,244.955093 231.285294,242.730499 231.817978,239.832336 
z"/>
<path fill="#2F2C2E" opacity="1.000000" stroke="none" 
	d="
M122.883644,258.989075 
	C116.629059,257.203705 117.377579,251.339890 117.136421,247.153702 
	C116.496780,236.050537 117.002541,224.882034 117.029106,213.739471 
	C117.037239,210.329163 117.805023,207.105164 121.703835,206.705170 
	C130.709946,205.781219 139.817596,204.288254 148.616333,207.939774 
	C149.766083,208.416931 150.676880,209.469833 151.752457,210.898346 
	C151.841492,213.485672 152.107162,215.461502 151.852615,217.367859 
	C151.538956,219.716843 150.878464,222.033432 150.206238,224.316437 
	C149.623856,226.294266 148.815842,228.205673 148.095016,230.121246 
	C148.082474,230.096069 148.131470,230.126633 147.854630,230.224762 
	C147.727631,231.924301 147.561081,233.639984 148.090103,235.104401 
	C149.373779,238.657883 149.255157,241.529495 145.522659,243.513062 
	C144.758240,243.919281 144.277985,244.860229 143.650574,245.573059 
	C148.806534,249.419174 148.749557,249.427780 143.854797,253.163269 
	C142.063797,254.530075 140.609268,256.337738 138.865723,258.046570 
	C138.730209,258.148804 138.392227,258.117615 137.909027,258.094788 
	C133.617249,258.594513 129.808670,259.117065 125.762917,259.725494 
	C125.367081,259.867126 125.208435,259.922913 124.824509,259.773346 
	C124.027382,259.375031 123.455513,259.182037 122.883644,258.989075 
M131.788681,247.926025 
	C138.820419,245.549271 139.929901,243.822189 136.655090,239.054413 
	C134.749634,238.818024 132.769257,238.132370 130.953735,238.435196 
	C126.667496,239.150101 127.981773,242.690018 127.880249,245.469879 
	C127.794914,247.806229 128.567719,248.934113 131.788681,247.926025 
M132.855988,224.165100 
	C135.003174,223.428864 137.150360,222.692612 139.297546,221.956360 
	C139.253723,221.334930 139.209900,220.713501 139.166077,220.092072 
	C136.407593,219.721466 133.596954,218.899017 130.916946,219.208328 
	C129.881775,219.327789 129.142944,222.014984 128.269104,223.532333 
	C129.632172,223.908371 130.995239,224.284409 132.855988,224.165100 
M149.524155,215.497223 
	C149.524155,215.497223 149.487076,215.509750 149.524155,215.497223 
z"/>
<path fill="#332E32" opacity="1.000000" stroke="none" 
	d="
M324.153137,233.385696 
	C325.519989,231.951630 326.886841,230.517563 328.832581,229.309113 
	C334.211365,231.457306 335.530701,230.482254 336.110046,224.584076 
	C339.233429,228.458710 342.349915,230.001968 347.412354,226.916977 
	C350.921326,224.778610 355.387512,225.170242 358.950867,228.395828 
	C360.264526,229.584991 361.946442,230.367325 363.375763,231.281113 
	C371.267944,224.216385 380.156281,224.210388 385.057587,231.818115 
	C386.052246,237.169678 383.862488,239.847336 379.727875,241.163712 
	C377.702423,241.808578 375.578827,242.157013 373.487762,242.581146 
	C370.487701,243.189636 369.200500,244.730316 370.752289,248.656265 
	C372.674164,247.700043 374.426422,246.784607 376.216034,245.949356 
	C378.235779,245.006729 380.289154,244.136215 382.504272,243.496872 
	C383.096710,244.491058 383.512817,245.222687 383.868347,246.331009 
	C382.100189,254.497284 378.345428,256.917786 367.936279,256.564911 
	C366.160187,255.482895 364.636200,254.612686 363.011871,253.434265 
	C362.129303,251.883835 361.347046,250.641632 360.407593,249.149796 
	C357.573578,255.833694 351.807526,256.584656 345.544464,257.090454 
	C344.761902,257.349945 344.366486,257.646179 343.971069,257.942444 
	C337.890015,253.843674 336.603455,247.766251 337.161713,240.235504 
	C337.505096,238.506317 337.666779,237.544128 337.810089,236.691269 
	C335.873871,236.032715 334.063477,235.416946 332.082764,234.492004 
	C329.560486,231.635071 326.971283,231.396149 324.153137,233.385696 
M353.429779,242.043991 
	C346.376617,243.414536 346.376617,243.414536 347.731995,248.484299 
	C351.905792,246.467026 356.014008,244.517807 360.049530,242.428116 
	C360.260834,242.318695 359.853760,241.015213 359.720612,240.180023 
	C357.683075,240.816299 355.944305,241.359283 353.429779,242.043991 
z"/>
<path fill="#312D30" opacity="1.000000" stroke="none" 
	d="
M139.001236,257.944305 
	C140.609268,256.337738 142.063797,254.530075 143.854797,253.163269 
	C148.749557,249.427780 148.806534,249.419174 143.650574,245.573059 
	C144.277985,244.860229 144.758240,243.919281 145.522659,243.513062 
	C149.255157,241.529495 149.373779,238.657883 148.090103,235.104401 
	C147.561081,233.639984 147.727631,231.924301 147.908173,230.553391 
	C149.483398,232.581543 150.728256,234.379211 152.144165,236.463745 
	C155.873947,233.164627 159.432709,229.578613 162.991470,225.992599 
	C168.495911,225.425552 173.710190,225.761475 177.645355,231.230774 
	C177.990067,238.031265 176.368988,240.235565 170.513596,241.732880 
	C169.872314,241.896866 169.143890,241.849838 168.572708,242.134827 
	C166.516022,243.161041 164.467316,244.223145 162.548538,245.475403 
	C162.355576,245.601334 163.063721,247.108017 163.353668,247.973907 
	C165.381363,247.092331 167.353729,246.032867 169.452576,245.380127 
	C171.480637,244.749435 173.639038,244.537872 175.809052,244.445038 
	C175.997223,245.143600 176.116501,245.539307 176.193878,246.330460 
	C176.125732,251.492813 173.389694,254.376907 169.210876,255.761688 
	C166.630951,256.616638 163.777542,256.646271 160.722382,256.981842 
	C159.963333,256.992065 159.528839,257.066895 159.094330,257.141754 
	C158.904495,256.909576 158.735123,256.663330 158.357513,255.911102 
	C156.841080,254.212845 155.553299,253.006470 154.194275,251.450531 
	C153.565704,249.702499 153.008392,248.304031 151.994873,245.760757 
	C148.901291,252.467804 145.317703,256.827606 139.001236,257.944305 
z"/>
<path fill="#D9BACB" opacity="1.000000" stroke="none" 
	d="
M302.957642,233.033234 
	C304.344757,234.146820 305.731842,235.260406 307.064606,236.734619 
	C302.772919,241.504593 301.709839,250.183075 304.790192,255.218933 
	C309.131744,262.316589 309.049866,262.203705 302.521851,266.938782 
	C301.225464,267.879150 300.608765,269.985199 300.080658,271.679016 
	C299.703308,272.889191 300.262146,274.378662 299.934082,275.619476 
	C299.375916,277.730774 298.448456,279.744415 297.676147,281.799103 
	C295.940826,280.878052 294.183350,279.995453 292.482880,279.014038 
	C291.927521,278.693481 291.520599,278.115662 291.306763,277.274139 
	C296.070129,277.048218 295.894775,273.802856 295.965118,270.788971 
	C296.059387,266.750183 295.267792,262.751007 300.740234,260.763550 
	C304.046661,259.562744 303.405090,256.660858 300.234772,254.936737 
	C299.294403,253.806747 298.354004,252.676773 297.222900,250.891357 
	C297.421204,247.613449 297.408905,244.844757 298.298004,242.404465 
	C299.484741,239.147202 301.371521,236.144989 302.957642,233.033234 
z"/>
<path fill="#D9BACB" opacity="1.000000" stroke="none" 
	d="
M176.235794,245.935013 
	C176.116501,245.539307 175.997223,245.143600 176.143906,244.306747 
	C180.126572,242.448837 181.581772,239.460495 182.032745,235.774292 
	C187.634903,240.851425 187.364716,244.560135 181.088806,248.731232 
	C184.097488,253.567932 184.007919,258.042175 180.566101,260.953674 
	C175.757889,265.021088 167.412872,265.623688 163.453476,261.970032 
	C162.007462,260.635651 160.677872,259.175079 159.194733,257.456909 
	C159.528839,257.066895 159.963333,256.992065 160.919281,257.275513 
	C166.758560,260.757202 172.191650,260.402344 176.672897,256.638916 
	C180.528839,253.400681 180.350433,249.032166 176.235794,245.935013 
z"/>
<path fill="#D9BACB" opacity="1.000000" stroke="none" 
	d="
M332.253052,234.801193 
	C334.063477,235.416946 335.873871,236.032715 337.810089,236.691269 
	C337.666779,237.544128 337.505096,238.506317 337.176636,239.801025 
	C331.821442,240.136978 327.319122,244.659668 326.067017,251.364182 
	C325.530426,254.237381 325.708893,257.284119 324.889465,260.052826 
	C324.129639,262.620056 322.472931,264.921875 321.211151,267.340546 
	C319.200500,266.128784 317.189850,264.916992 315.079010,263.361755 
	C314.978821,263.018311 315.032379,262.964325 315.402557,262.916870 
	C317.483734,261.168732 319.830872,259.750183 320.742249,257.694946 
	C321.844299,255.209808 321.433136,252.100266 322.203857,249.412064 
	C323.906952,243.472153 324.453949,236.597290 332.253052,234.801193 
z"/>
<path fill="#D9BACB" opacity="1.000000" stroke="none" 
	d="
M383.928894,245.954315 
	C383.512817,245.222687 383.096710,244.491058 382.922028,243.442978 
	C388.334290,242.585831 389.119537,238.976639 389.023590,234.750900 
	C394.275482,239.536331 394.305511,242.795959 389.151825,248.663681 
	C391.924988,255.304428 391.365204,258.700439 386.305908,262.091278 
	C382.130493,264.889709 373.699829,265.713074 368.086731,259.381531 
	C367.981293,259.021637 368.039429,258.965485 368.448914,258.984406 
	C374.234436,260.423889 379.417938,260.513611 383.898499,256.565338 
	C387.851166,253.082321 387.829315,248.728302 383.928894,245.954315 
z"/>
<path fill="#D9BACB" opacity="1.000000" stroke="none" 
	d="
M154.265518,251.800095 
	C155.553299,253.006470 156.841080,254.212845 158.202728,255.748810 
	C152.797623,264.620514 140.565643,269.880615 131.201263,266.774719 
	C128.045959,265.728210 125.739708,262.121704 122.964531,259.337158 
	C123.455513,259.182037 124.027382,259.375031 125.011581,260.082336 
	C127.693642,261.386322 129.966980,262.857849 132.232422,262.845764 
	C141.292633,262.797424 149.258881,260.134460 154.265518,251.800095 
z"/>
<path fill="#D9BACB" opacity="1.000000" stroke="none" 
	d="
M254.151520,244.568710 
	C255.145645,246.541565 256.139771,248.514420 257.076172,250.860168 
	C252.440598,252.553406 254.141251,256.851929 253.068390,259.796387 
	C252.473251,261.429779 252.862503,263.407257 252.349045,265.089539 
	C251.922028,266.488617 250.824783,267.683105 250.024414,268.968201 
	C248.528580,268.001099 247.011505,267.064636 245.548096,266.050781 
	C245.012497,265.679718 244.604218,265.124878 244.360107,264.297180 
	C248.289032,263.931091 248.993225,261.282257 248.867477,258.503387 
	C248.619690,253.027374 250.266068,248.408722 254.151520,244.568710 
z"/>
<path fill="#D9BACB" opacity="1.000000" stroke="none" 
	d="
M363.112183,253.742493 
	C364.636200,254.612686 366.160187,255.482895 367.918335,256.929749 
	C368.114807,257.992798 368.077148,258.479126 368.039429,258.965485 
	C368.039429,258.965485 367.981293,259.021637 367.952332,259.049805 
	C364.533051,260.728973 361.296906,263.030853 357.716431,263.878571 
	C352.330353,265.153778 347.476593,263.467072 344.062317,258.282257 
	C344.366486,257.646179 344.761902,257.349945 345.735840,257.456421 
	C351.789886,261.581482 358.204254,260.009491 363.112183,253.742493 
z"/>
<path fill="#C48BAF" opacity="1.000000" stroke="none" 
	d="
M254.100586,244.230682 
	C250.266068,248.408722 248.619690,253.027374 248.867477,258.503387 
	C248.993225,261.282257 248.289032,263.931091 244.181763,263.981689 
	C243.446472,264.046997 243.199097,263.911591 243.000473,263.062439 
	C242.978439,262.065857 242.994949,261.623474 243.011444,261.181091 
	C243.945908,257.449432 244.696060,253.657990 245.880249,250.007355 
	C246.656418,247.614578 247.747284,245.156219 249.351929,243.290268 
	C249.918381,242.631577 252.427475,243.643494 254.100586,244.230682 
z"/>
<path fill="#BD87AA" opacity="1.000000" stroke="none" 
	d="
M182.060745,235.439224 
	C181.581772,239.460495 180.126572,242.448837 176.075043,244.003906 
	C173.639038,244.537872 171.480637,244.749435 169.452576,245.380127 
	C167.353729,246.032867 165.381363,247.092331 163.353668,247.973907 
	C163.063721,247.108017 162.355576,245.601334 162.548538,245.475403 
	C164.467316,244.223145 166.516022,243.161041 168.572708,242.134827 
	C169.143890,241.849838 169.872314,241.896866 170.513596,241.732880 
	C176.368988,240.235565 177.990067,238.031265 177.934601,231.419067 
	C179.391006,232.381256 180.739883,233.742706 182.060745,235.439224 
z"/>
<path fill="#C48BAF" opacity="1.000000" stroke="none" 
	d="
M300.062073,255.254456 
	C303.405090,256.660858 304.046661,259.562744 300.740234,260.763550 
	C295.267792,262.751007 296.059387,266.750183 295.965118,270.788971 
	C295.894775,273.802856 296.070129,277.048218 291.157593,276.953003 
	C290.430542,277.024017 290.196289,276.890167 290.073578,276.014343 
	C290.142242,275.159149 290.181976,274.901276 290.221680,274.643402 
	C291.071136,272.038208 292.497162,269.463501 292.636993,266.820740 
	C292.855316,262.694427 292.628540,258.827606 297.895721,257.695312 
	C298.676361,257.527496 299.230469,256.306122 300.062073,255.254456 
z"/>
<path fill="#D9BACB" opacity="1.000000" stroke="none" 
	d="
M215.078934,253.944061 
	C215.900711,255.163834 216.722473,256.383606 217.795898,257.802917 
	C218.266159,263.257446 214.467453,265.502380 210.501282,266.717560 
	C206.787216,267.855530 202.699631,267.672668 200.398285,263.318176 
	C207.710022,263.506256 212.454132,260.419403 215.078934,253.944061 
z"/>
<path fill="#BD87AA" opacity="1.000000" stroke="none" 
	d="
M388.902557,234.445724 
	C389.119537,238.976639 388.334290,242.585831 382.745667,243.180435 
	C380.289154,244.136215 378.235779,245.006729 376.216034,245.949356 
	C374.426422,246.784607 372.674164,247.700043 370.752289,248.656265 
	C369.200500,244.730316 370.487701,243.189636 373.487762,242.581146 
	C375.578827,242.157013 377.702423,241.808578 379.727875,241.163712 
	C383.862488,239.847336 386.052246,237.169678 385.052643,232.167450 
	C386.245178,232.538086 387.513367,233.339310 388.902557,234.445724 
z"/>
<path fill="#D9BACB" opacity="1.000000" stroke="none" 
	d="
M242.675018,261.117554 
	C242.994949,261.623474 242.978439,262.065857 242.977966,262.840881 
	C241.921539,263.805969 240.834122,264.414581 239.778976,265.074738 
	C232.424301,269.676361 227.238312,268.066101 222.389587,261.385742 
	C228.909973,264.517914 234.146851,262.575256 238.895248,258.044250 
	C240.043015,259.047516 241.190796,260.050781 242.675018,261.117554 
z"/>
<path fill="#BD87AA" opacity="1.000000" stroke="none" 
	d="
M151.973129,236.176865 
	C150.728256,234.379211 149.483398,232.581543 148.184998,230.455261 
	C148.131470,230.126633 148.082474,230.096069 148.390717,229.951721 
	C153.329453,225.015045 155.857544,219.569885 153.992310,212.760529 
	C155.254547,213.914139 156.516800,215.067749 157.875900,216.976898 
	C156.510361,222.183731 155.043106,226.633469 153.588058,231.087189 
	C153.035324,232.779022 152.510605,234.480042 151.973129,236.176865 
z"/>
<path fill="#C48BAF" opacity="1.000000" stroke="none" 
	d="
M215.040649,253.613312 
	C212.454132,260.419403 207.710022,263.506256 200.246750,262.978699 
	C198.884735,262.196930 197.961136,261.383057 196.999023,260.257843 
	C203.482300,260.340912 208.422821,258.116302 211.220551,251.177155 
	C212.174484,250.431198 212.683395,250.113571 213.192291,249.795929 
	C213.795639,250.958145 214.399002,252.120346 215.040649,253.613312 
z"/>
<path fill="#D9BACB" opacity="1.000000" stroke="none" 
	d="
M152.144165,236.463745 
	C152.510605,234.480042 153.035324,232.779022 153.588058,231.087189 
	C155.043106,226.633469 156.510361,222.183731 158.001770,217.293640 
	C159.694199,219.646698 161.357605,222.438568 163.006256,225.611511 
	C159.432709,229.578613 155.873947,233.164627 152.144165,236.463745 
z"/>
<path fill="#BD87AA" opacity="1.000000" stroke="none" 
	d="
M238.870255,257.696625 
	C234.146851,262.575256 228.909973,264.517914 222.282074,261.038971 
	C221.555008,260.946045 221.287659,260.788177 220.971436,260.293945 
	C227.501877,260.177765 233.515625,258.873962 237.264694,251.345886 
	C237.975616,254.046051 238.410446,255.697525 238.870255,257.696625 
z"/>
<path fill="#2F2C2E" opacity="1.000000" stroke="none" 
	d="
M335.904724,224.314957 
	C335.530701,230.482254 334.211365,231.457306 329.195862,229.272614 
	C329.073944,227.616516 329.167664,226.222565 329.270416,224.694534 
	C327.510925,224.139069 326.013062,223.666183 324.171448,223.042694 
	C326.900940,219.751678 331.246490,220.174011 335.904724,224.314957 
z"/>
<path fill="#C48BAF" opacity="1.000000" stroke="none" 
	d="
M258.993591,252.324921 
	C262.465973,250.507858 266.000549,248.988892 269.715942,247.392227 
	C270.039917,248.485336 270.450775,249.871613 270.515228,251.723282 
	C267.354523,253.134674 264.540222,254.080658 261.725922,255.026642 
	C260.835876,254.225433 259.945801,253.424240 258.993591,252.324921 
z"/>
<path fill="#BD87AA" opacity="1.000000" stroke="none" 
	d="
M277.829926,265.394714 
	C278.931366,263.583588 280.112152,262.132751 282.121674,259.663635 
	C283.103790,261.433167 284.299469,263.005859 284.862274,264.779327 
	C285.341888,266.290802 285.093475,268.033264 285.036743,269.949463 
	C282.574036,268.735260 280.241638,267.245087 277.829926,265.394714 
z"/>
<path fill="#D9BACB" opacity="1.000000" stroke="none" 
	d="
M261.856995,255.378418 
	C264.540222,254.080658 267.354523,253.134674 270.506683,252.089050 
	C271.263672,253.728897 271.682831,255.468414 272.016998,257.584106 
	C266.922913,260.691467 265.152313,260.294373 261.856995,255.378418 
z"/>
<path fill="#312D30" opacity="1.000000" stroke="none" 
	d="
M153.917221,212.488510 
	C155.857544,219.569885 153.329453,225.015045 148.403259,229.976898 
	C148.815842,228.205673 149.623856,226.294266 150.206238,224.316437 
	C150.878464,222.033432 151.538956,219.716843 151.852615,217.367859 
	C152.107162,215.461502 151.841492,213.485672 151.956192,211.182648 
	C152.684601,211.288589 153.263367,211.752548 153.917221,212.488510 
z"/>
<path fill="#BD87AA" opacity="1.000000" stroke="none" 
	d="
M283.038452,248.606842 
	C282.714630,250.590103 282.245453,252.261368 281.776276,253.932617 
	C281.350494,253.827667 280.924713,253.722733 280.498932,253.617783 
	C279.275269,249.973953 278.051636,246.330109 276.915100,242.297424 
	C278.965820,244.037323 280.929504,246.166077 283.038452,248.606842 
z"/>
<path fill="#332E32" opacity="1.000000" stroke="none" 
	d="
M320.736084,224.788818 
	C320.861420,226.539322 320.721008,228.100647 320.531616,230.206711 
	C316.258942,227.833435 314.634857,224.837570 314.988983,220.293762 
	C316.813263,221.449188 318.641785,223.024414 320.736084,224.788818 
z"/>
<path fill="#332E32" opacity="1.000000" stroke="none" 
	d="
M308.800293,255.558395 
	C311.252045,255.451782 313.690186,255.708817 316.475525,256.297577 
	C316.195526,257.723999 315.568298,258.818695 314.626404,259.937256 
	C313.892151,259.977386 313.472534,259.993591 313.052948,260.009827 
	C311.630859,258.647217 310.208771,257.284637 308.800293,255.558395 
z"/>
<path fill="#D9BACB" opacity="1.000000" stroke="none" 
	d="
M313.054504,260.339539 
	C313.472534,259.993591 313.892151,259.977386 314.631714,260.318542 
	C314.978607,261.438721 315.005493,262.201508 315.032410,262.964325 
	C315.032379,262.964325 314.978821,263.018311 314.951904,263.045166 
	C314.302032,262.271118 313.679077,261.470154 313.054504,260.339539 
z"/>
<path fill="#332E32" opacity="1.000000" stroke="none" 
	d="
M307.932800,253.284912 
	C308.229431,253.471481 308.516479,253.973053 308.867859,254.759125 
	C308.595886,254.562393 308.259552,254.081146 307.932800,253.284912 
z"/>
<path fill="#D9BACB" opacity="1.000000" stroke="none" 
	d="
M289.893250,274.654175 
	C290.181976,274.901276 290.142242,275.159149 290.041656,275.804199 
	C289.688599,275.981842 289.396423,275.772308 289.059509,275.293701 
	C289.198120,274.904724 289.381470,274.784851 289.893250,274.654175 
z"/>
<path fill="#BD87AA" opacity="1.000000" stroke="none" 
	d="
M276.985168,241.904205 
	C276.932983,241.840149 276.720154,241.656113 276.342773,241.358124 
	C276.538086,241.253799 276.753510,241.433823 276.985168,241.904205 
z"/>
<path fill="#C48BAF" opacity="1.000000" stroke="none" 
	d="
M315.402588,262.916870 
	C315.005493,262.201508 314.978607,261.438721 314.946381,260.294617 
	C315.568298,258.818695 316.195526,257.723999 316.824585,256.312256 
	C316.957611,255.575287 317.088776,255.155365 317.378479,254.066315 
	C317.669647,251.597748 317.802246,249.798325 317.934845,247.998901 
	C318.032471,247.568192 318.130157,247.137482 318.370239,246.159271 
	C318.584106,245.071930 318.655579,244.532120 318.727051,243.992310 
	C318.860535,243.568802 318.994019,243.145279 319.355469,242.138275 
	C320.677490,239.368637 321.771545,237.182495 322.865570,234.996353 
	C323.236084,234.625641 323.606598,234.254944 324.065125,233.634964 
	C326.971283,231.396149 329.560486,231.635071 332.082764,234.492004 
	C324.453949,236.597290 323.906952,243.472153 322.203857,249.412064 
	C321.433136,252.100266 321.844299,255.209808 320.742249,257.694946 
	C319.830872,259.750183 317.483734,261.168732 315.402588,262.916870 
z"/>
<path fill="#BD87AA" opacity="1.000000" stroke="none" 
	d="
M302.887604,232.662201 
	C301.371521,236.144989 299.484741,239.147202 298.298004,242.404465 
	C297.408905,244.844757 297.421204,247.613449 296.994720,250.653610 
	C296.018433,250.598282 294.535248,250.351791 294.228882,249.615570 
	C292.204041,244.749985 296.871674,230.669525 301.589355,227.171204 
	C302.009308,228.921829 302.413422,230.606506 302.887604,232.662201 
z"/>
<path fill="#BD87AA" opacity="1.000000" stroke="none" 
	d="
M203.077057,249.416718 
	C202.007889,249.894211 200.938736,250.371689 199.869568,250.849182 
	C199.471985,249.823135 198.441727,248.460388 198.779510,247.825653 
	C200.975510,243.698837 203.441925,239.712830 205.982071,235.785675 
	C206.066544,235.655075 207.883163,236.644852 208.909698,237.761108 
	C206.977036,242.078812 205.027054,245.747757 203.077057,249.416718 
z"/>
<path fill="#D9BACB" opacity="1.000000" stroke="none" 
	d="
M203.377991,249.224335 
	C205.027054,245.747757 206.977036,242.078812 209.018265,238.061188 
	C210.225708,237.946671 211.341904,238.180817 212.547318,238.433685 
	C212.739960,241.976578 212.928314,245.440552 213.154480,249.350220 
	C212.683395,250.113571 212.174484,250.431198 211.388428,250.864685 
	C210.785904,248.894089 210.460510,246.807648 210.135132,244.721207 
	C209.602722,244.636093 209.070312,244.550995 208.537903,244.465881 
	C206.918243,245.987915 205.298584,247.509949 203.377991,249.224335 
z"/>
<path fill="#BD87AA" opacity="1.000000" stroke="none" 
	d="
M231.837570,240.169128 
	C231.285294,242.730499 230.713440,244.955093 230.141571,247.179688 
	C229.614105,247.002853 229.086624,246.826019 228.559143,246.649185 
	C227.614578,243.594360 228.420898,241.071960 231.273697,239.186935 
	C231.329514,239.150055 231.549255,239.281937 231.630997,239.384232 
	C231.728149,239.505768 231.758621,239.680588 231.837570,240.169128 
z"/>
<path fill="#332E32" opacity="1.000000" stroke="none" 
	d="
M322.517212,235.033707 
	C321.771545,237.182495 320.677490,239.368637 319.361084,241.804169 
	C315.626068,237.763412 318.941467,236.436325 322.517212,235.033707 
z"/>
<path fill="#332E32" opacity="1.000000" stroke="none" 
	d="
M317.636169,248.170624 
	C317.802246,249.798325 317.669647,251.597748 317.357056,253.735199 
	C317.230530,252.162933 317.283997,250.252625 317.636169,248.170624 
z"/>
<path fill="#332E32" opacity="1.000000" stroke="none" 
	d="
M318.469177,244.027649 
	C318.655579,244.532120 318.584106,245.071930 318.339905,245.827896 
	C317.776886,245.618469 317.386597,245.192871 316.996338,244.767273 
	C317.401337,244.532501 317.806335,244.297745 318.469177,244.027649 
z"/>
<path fill="#C48BAF" opacity="1.000000" stroke="none" 
	d="
M154.194275,251.450531 
	C149.258881,260.134460 141.292633,262.797424 132.232422,262.845764 
	C129.966980,262.857849 127.693642,261.386322 125.236855,260.287659 
	C125.208435,259.922913 125.367081,259.867126 126.191422,259.829102 
	C130.702148,259.270416 134.547180,258.694000 138.392227,258.117615 
	C138.392227,258.117615 138.730209,258.148804 138.865723,258.046570 
	C145.317703,256.827606 148.901291,252.467804 151.994873,245.760757 
	C153.008392,248.304031 153.565704,249.702499 154.194275,251.450531 
z"/>
<path fill="#BD87AA" opacity="1.000000" stroke="none" 
	d="
M132.607147,224.412781 
	C130.995239,224.284409 129.632172,223.908371 128.269104,223.532349 
	C129.142944,222.014984 129.881775,219.327789 130.916946,219.208328 
	C133.596954,218.899017 136.407593,219.721466 139.166077,220.092072 
	C139.209900,220.713501 139.253723,221.334930 139.297546,221.956360 
	C137.150360,222.692612 135.003174,223.428864 132.607147,224.412781 
z"/>
<path fill="#BD87AA" opacity="1.000000" stroke="none" 
	d="
M131.039307,247.890228 
	C128.567719,248.934113 127.794914,247.806229 127.880249,245.469879 
	C127.981773,242.690018 126.667496,239.150101 130.953735,238.435196 
	C132.769257,238.132370 134.749634,238.818024 136.666412,239.611755 
	C133.305191,241.652496 130.028839,243.206131 131.039307,247.890228 
z"/>
<path fill="#D9BACB" opacity="1.000000" stroke="none" 
	d="
M131.414001,247.908127 
	C130.028839,243.206131 133.305191,241.652496 136.912354,239.877045 
	C139.929901,243.822189 138.820419,245.549271 131.414001,247.908127 
z"/>
<path fill="#312D30" opacity="1.000000" stroke="none" 
	d="
M137.909027,258.094788 
	C134.547180,258.694000 130.702148,259.270416 126.428604,259.743225 
	C129.808670,259.117065 133.617249,258.594513 137.909027,258.094788 
z"/>
<path fill="#312D30" opacity="1.000000" stroke="none" 
	d="
M149.505615,215.503479 
	C149.487076,215.509750 149.524155,215.497223 149.505615,215.503479 
z"/>
<path fill="#C48BAF" opacity="1.000000" stroke="none" 
	d="
M368.448944,258.984406 
	C368.077148,258.479126 368.114807,257.992798 368.170410,257.141602 
	C378.345428,256.917786 382.100189,254.497284 383.868347,246.331024 
	C387.829315,248.728302 387.851166,253.082321 383.898499,256.565338 
	C379.417938,260.513611 374.234436,260.423889 368.448944,258.984406 
z"/>
<path fill="#C48BAF" opacity="1.000000" stroke="none" 
	d="
M363.011871,253.434265 
	C358.204254,260.009491 351.789886,261.581482 346.122986,257.493164 
	C351.807526,256.584656 357.573578,255.833694 360.407593,249.149796 
	C361.347046,250.641632 362.129303,251.883835 363.011871,253.434265 
z"/>
<path fill="#BD87AA" opacity="1.000000" stroke="none" 
	d="
M353.817657,241.973114 
	C355.944305,241.359283 357.683075,240.816299 359.720612,240.180023 
	C359.853760,241.015213 360.260834,242.318695 360.049530,242.428116 
	C356.014008,244.517807 351.905792,246.467026 347.731995,248.484299 
	C346.376617,243.414536 346.376617,243.414536 353.817657,241.973114 
z"/>
<path fill="#C48BAF" opacity="1.000000" stroke="none" 
	d="
M176.193878,246.330460 
	C180.350433,249.032166 180.528839,253.400681 176.672897,256.638916 
	C172.191650,260.402344 166.758560,260.757202 161.243820,257.340149 
	C163.777542,256.646271 166.630951,256.616638 169.210876,255.761688 
	C173.389694,254.376907 176.125732,251.492813 176.193878,246.330460 
z"/>
</svg>